<svg width="22" height="22" viewBox="0 0 22 22" fill="none" xmlns="http://www.w3.org/2000/svg">
<path d="M15.2958 7.33334L13.0615 5.84375L-0.0010376 14.6667L10.999 22L21.999 14.6667L17.4156 11.6302L11.9156 15.3542L14.3219 16.901L10.999 18.9063L4.75417 14.6667L15.2958 7.33334Z" fill="#346AFF"/>
<path d="M4.58229 18.9635L2.29063 17.4167L-0.0010376 18.9635V22L4.58229 18.9635Z" fill="#346AFF"/>
<path d="M21.999 7.33334L10.999 0L-0.0010376 7.33334L4.58229 10.3698L10.0823 6.64584L7.67604 5.09896L10.999 3.09375L17.2438 7.33334L6.70209 14.6667L8.93646 16.1563L21.999 7.33334Z" fill="#346AFF"/>
<path d="M21.999 3.03646V0L17.4156 3.03646L19.7073 4.58333L21.999 3.03646Z" fill="#346AFF"/>
</svg>
